<?xml version="1.0" encoding="iso-8859-1"?>
<!-- Generator: Adobe Illustrator 19.0.0, SVG Export Plug-In . SVG Version: 6.00 Build 0)  -->
<svg version="1.1" id="Capa_1" xmlns="http://www.w3.org/2000/svg" xmlns:xlink="http://www.w3.org/1999/xlink" x="0px" y="0px"
	 viewBox="0 0 512.001 512.001" style="enable-background:new 0 0 512.001 512.001;" xml:space="preserve">
<g>
	<g>
		<path d="M448.798,132.338c-29.944-21.316-69.282-25.11-102.669-9.9c-32.053,14.604-54.48,44.846-59.374,79.612l-23.254,10.594
			v-35.273c29.608-18.867,47.832-51.814,47.832-87.037c0-36.687-19.763-70.914-51.575-89.325c-2.324-1.345-5.189-1.345-7.513,0
			C220.432,19.42,200.67,53.647,200.67,90.334c0,35.223,18.224,68.17,47.832,87.037v35.273l-23.256-10.595
			c-4.894-34.766-27.321-65.009-59.374-79.612c-33.385-15.209-72.725-11.417-102.669,9.9c-2.188,1.557-3.375,4.165-3.115,6.837
			c3.565,36.583,26.519,68.756,59.904,83.967c13.577,6.186,28.134,9.228,42.648,9.228c19.753,0,39.419-5.644,56.393-16.667
			l29.469,13.426v60.791H131.749c-15.554,0-28.208,12.654-28.208,28.208v20.708c0,4.142,3.358,7.5,7.5,7.5h14.273l19.731,128.247
			c0.563,3.659,3.711,6.359,7.413,6.359h2.855v23.56c0,4.142,3.358,7.5,7.5,7.5h186.375c4.143,0,7.5-3.358,7.5-7.5v-23.559h2.854
			c3.702,0,6.85-2.701,7.413-6.359l19.73-128.247h14.275c4.143,0,7.5-3.358,7.5-7.5v-20.708c0-15.554-12.654-28.208-28.209-28.208
			h-116.75v-60.792l29.466-13.425c16.975,11.024,36.638,16.667,56.393,16.667c14.513,0,29.073-3.043,42.648-9.228
			c33.386-15.21,56.339-47.384,59.904-83.967C452.173,136.503,450.985,133.895,448.798,132.338z M134.999,160.935l-7.804-3.555
			c-3.77-1.718-8.218-0.055-9.935,3.716c-1.717,3.77-0.054,8.217,3.716,9.935l26.646,12.14l-8.568,6.925
			c-3.222,2.604-3.722,7.326-1.119,10.547c1.482,1.834,3.65,2.786,5.837,2.786c1.656,0,3.322-0.546,4.71-1.667l14.4-11.638
			l39.354,17.929c-23.614,11.785-51.674,12.533-76.026,1.438c-27.193-12.389-46.288-37.952-50.656-67.398
			c25.086-16.027,56.907-18.395,84.099-6.005c24.353,11.095,42.201,32.759,48.804,58.313l-58.195-26.513l-0.671-18.508
			c-0.15-4.139-3.653-7.371-7.767-7.224c-4.14,0.15-7.374,3.627-7.224,7.767L134.999,160.935z M380.253,304.922
			c7.282-0.003,13.208,5.923,13.208,13.206v13.208h-228.22c-4.142,0-7.5,3.358-7.5,7.5c0,4.142,3.358,7.5,7.5,7.5h206.267
			l-18.4,119.606h-24.627c-4.143,0-7.5,3.358-7.5,7.5c0,4.142,3.357,7.5,7.5,7.5h13.208v16.059H170.314v-16.059h124.675
			c4.143,0,7.5-3.358,7.5-7.5c0-4.142-3.357-7.5-7.5-7.5H162.862c-0.016,0-0.032-0.002-0.048-0.002
			c-0.016,0-0.032,0.002-0.048,0.002h-3.872l-19.732-128.247c-0.008-0.054-0.023-0.105-0.033-0.159
			c-0.025-0.145-0.055-0.287-0.088-0.429c-0.025-0.105-0.051-0.209-0.08-0.312c-0.037-0.132-0.079-0.263-0.123-0.392
			c-0.038-0.111-0.078-0.221-0.12-0.329c-0.045-0.113-0.093-0.224-0.143-0.335c-0.054-0.119-0.109-0.236-0.169-0.351
			c-0.049-0.094-0.101-0.187-0.154-0.279c-0.07-0.123-0.142-0.243-0.219-0.361c-0.053-0.081-0.108-0.16-0.164-0.239
			c-0.084-0.119-0.171-0.236-0.261-0.349c-0.059-0.074-0.121-0.146-0.183-0.218c-0.094-0.109-0.19-0.216-0.291-0.32
			c-0.069-0.072-0.141-0.14-0.213-0.209c-0.099-0.094-0.199-0.187-0.303-0.275c-0.083-0.071-0.168-0.138-0.254-0.206
			c-0.1-0.078-0.201-0.155-0.305-0.228c-0.097-0.068-0.196-0.132-0.296-0.196c-0.101-0.064-0.201-0.126-0.305-0.185
			c-0.108-0.062-0.218-0.119-0.329-0.175c-0.104-0.052-0.208-0.104-0.314-0.151c-0.113-0.051-0.229-0.098-0.345-0.143
			c-0.112-0.044-0.224-0.085-0.338-0.124c-0.113-0.038-0.228-0.072-0.344-0.105c-0.124-0.035-0.248-0.067-0.374-0.096
			c-0.109-0.025-0.22-0.046-0.331-0.066c-0.137-0.025-0.274-0.046-0.412-0.063c-0.107-0.013-0.214-0.023-0.322-0.032
			c-0.143-0.011-0.287-0.019-0.432-0.022c-0.056-0.001-0.111-0.008-0.167-0.008h-13.208V318.13c0-7.283,5.925-13.208,13.208-13.208
			h124.242c0.003,0,0.006,0,0.01,0c0.004,0,0.006,0,0.01,0H380.253z M256.002,62.126c-4.143,0-7.5,3.358-7.5,7.5v8.575l-9.855-4.928
			c-3.705-1.852-8.209-0.351-10.063,3.354c-1.853,3.705-0.351,8.21,3.354,10.063l16.564,8.284v63.95
			c-20.518-16.604-32.832-41.829-32.832-68.59c0-29.882,15.346-57.856,40.332-74.041c24.986,16.184,40.332,44.159,40.332,74.041
			c0,26.761-12.315,51.986-32.832,68.589v-43.246l16.562-8.279c3.705-1.852,5.207-6.357,3.354-10.062
			c-1.852-3.706-6.358-5.208-10.062-3.355l-9.854,4.926V69.626C263.502,65.484,260.145,62.126,256.002,62.126z M385.79,209.491
			c-24.353,11.095-52.412,10.347-76.027-1.441l39.354-17.929l14.399,11.638c1.389,1.122,3.055,1.667,4.71,1.667
			c2.188,0,4.355-0.953,5.838-2.786c2.604-3.221,2.103-7.943-1.118-10.547l-8.568-6.925l26.645-12.139
			c3.77-1.717,5.433-6.165,3.716-9.935c-1.717-3.77-6.167-5.433-9.935-3.716L377,160.934l0.399-11.011
			c0.149-4.14-3.084-7.617-7.224-7.767c-4.157-0.149-7.617,3.084-7.767,7.224l-0.67,18.508l-58.195,26.513
			c6.603-25.554,24.451-47.218,48.804-58.313c27.192-12.39,59.014-10.021,84.099,6.005
			C432.077,171.54,412.982,197.103,385.79,209.491z"/>
	</g>
</g>
<g>
</g>
<g>
</g>
<g>
</g>
<g>
</g>
<g>
</g>
<g>
</g>
<g>
</g>
<g>
</g>
<g>
</g>
<g>
</g>
<g>
</g>
<g>
</g>
<g>
</g>
<g>
</g>
<g>
</g>
</svg>
