<svg xmlns="http://www.w3.org/2000/svg" viewBox="0 0 512 500" width="512" height="500">
	<style>
		tspan { white-space:pre }
		.shp0 { fill: #6bcf26 } 
	</style>
	<g id="Layer">
		<g id="Layer">
			<path id="Layer" fill-rule="evenodd" class="shp0" d="M503.85 477.74C494.88 491.06 479.95 499.02 463.91 499.02L48.09 499.02C32.05 499.02 17.12 491.06 8.15 477.74C-0.72 464.58 -2.46 447.98 3.47 433.34C24.16 382.37 72 346.97 126.41 341.83C138.44 319.85 155.88 301.24 177.15 287.78C197.84 274.68 221.39 267 245.8 265.33L245.8 209.17L205.31 209.17C124.09 209.17 58.01 143.09 58.01 61.87L58.01 11.18C58.01 5.55 62.58 0.98 68.21 0.98L118.9 0.98C181.12 0.98 234.45 39.76 256 94.41C277.55 39.76 330.88 0.98 393.1 0.98L443.79 0.98C449.42 0.98 453.99 5.55 453.99 11.18L453.99 61.87C453.99 143.09 387.91 209.17 306.69 209.17L266.2 209.17L266.2 265.33C290.61 267 314.16 274.68 334.86 287.78C356.12 301.24 373.56 319.85 385.59 341.83C440 346.97 487.84 382.37 508.53 433.34C514.46 447.98 512.72 464.57 503.85 477.74ZM266.2 174.34L377.38 63.16C381.37 59.18 387.82 59.18 391.81 63.16C395.79 67.15 395.79 73.61 391.81 77.59L280.63 188.77L306.69 188.77C376.66 188.77 433.59 131.84 433.59 61.87L433.59 21.38L393.1 21.38C323.13 21.38 266.2 78.31 266.2 148.28L266.2 174.34ZM120.19 63.16C124.18 59.18 130.64 59.18 134.62 63.16L245.8 174.34L245.8 148.28C245.8 78.31 188.87 21.38 118.9 21.38L78.41 21.38L78.41 61.87C78.41 131.84 135.34 188.77 205.31 188.77L231.37 188.77L120.19 77.59C116.21 73.61 116.21 67.15 120.19 63.16ZM489.62 441.01C471.16 395.51 427.59 364.41 378.62 361.77L371.67 361.58C359.56 361.58 347.59 363.27 336.09 366.62C335.14 366.89 334.18 367.03 333.24 367.03C328.82 367.03 324.75 364.13 323.45 359.67C321.88 354.26 324.99 348.6 330.4 347.03C340.53 344.08 350.97 342.24 361.55 341.53C338.08 306.53 298.99 285.38 256 285.38C207.33 285.38 163.63 312.48 141.97 356.12C140.33 359.41 137.05 361.57 133.38 361.77C84.41 364.4 40.84 395.51 22.38 441.01C18.95 449.47 19.93 458.71 25.07 466.35C30.32 474.14 38.71 478.62 48.09 478.62L463.91 478.62C473.29 478.62 481.67 474.14 486.93 466.35C492.07 458.71 493.05 449.47 489.62 441.01Z" />
		</g>
	</g>
</svg>